<svg width="16" height="16" viewBox="0 0 16 16" fill="none" xmlns="http://www.w3.org/2000/svg">
  <path d="M8 0C3.58 0 0 3.58 0 8C0 11.54 2.29 14.47 5.47 15.45C5.87 15.52 6.02 15.28 6.02 15.08C6.02 14.9 6.01 14.39 6.01 13.74C4 14.09 3.48 13.07 3.48 13.07C3.13 12.21 2.63 11.97 2.63 11.97C1.93 11.52 2.68 11.53 2.68 11.53C3.45 11.59 3.83 12.32 3.83 12.32C4.52 13.4 5.68 13.1 6.14 12.9C6.22 12.41 6.41 12.1 6.62 11.93C4.82 11.74 2.93 11.06 2.93 7.89C2.93 6.99 3.26 6.26 3.82 5.71C3.73 5.53 3.42 4.68 3.91 3.52C3.91 3.52 4.61 3.29 6.01 4.38C6.66 4.22 7.36 4.14 8.06 4.14C8.76 4.14 9.46 4.22 10.11 4.38C11.51 3.29 12.21 3.52 12.21 3.52C12.7 4.68 12.39 5.53 12.3 5.71C12.86 6.26 13.19 6.99 13.19 7.89C13.19 11.07 11.3 11.73 9.5 11.92C9.78 12.17 10.04 12.69 10.04 13.5C10.04 14.61 10.03 15.5 10.03 15.08C10.03 15.28 10.18 15.52 10.58 15.45C13.76 14.47 16.05 11.54 16.05 8C16.05 3.58 12.47 0 8 0Z" fill="white"/>
</svg>
